# xmcd
# 
# Track frame offsets:
#     150
#     20789
#     37612
#     57761
#     73868
#     88461
#     108951
#     115918
#     127876
#     151734
#     171348
#     186012
# 
# Disc length: 2681
# 
# Revision: 1
# Processed by: cddbd v1.5.2PL0 Copyright (c) Steve Scherf et al.
# Submitted via: fre:ac v1.0.31
# 
DISCID=9a0a770c
DTITLE=ROSECOUSINS - Natural Conclusion
DYEAR=2016
DGENRE=Country
TTITLE0=Chosen
TTITLE1=Like Trees
TTITLE2=Freedom
TTITLE3=White Flag
TTITLE4=Chains
TTITLE5=The Grate
TTITLE6=My Friend
TTITLE7=Tender is the Man
TTITLE8=Lock and Key
TTITLE9=Grace
TTITLE10=Donoughmore
TTITLE11=Coda
EXTD=
EXTT0=
EXTT1=
EXTT2=
EXTT3=
EXTT4=
EXTT5=
EXTT6=
EXTT7=
EXTT8=
EXTT9=
EXTT10=
EXTT11=
PLAYORDER=
